<svg width="34" height="29" viewBox="0 0 34 29" fill="none" xmlns="http://www.w3.org/2000/svg">
<path d="M18.03 8.03009L20.03 11.5001L17.5 14.6801L14 8.62009L18.03 8.03009ZM29 14.0001V11.2901C29.88 10.9001 30.5 10.0301 30.5 9.00009C30.5 8.43009 30.3 7.90009 29.97 7.50009L31.94 6.35009C32.95 5.76009 33.3 4.47009 32.71 3.46009L31.33 1.06009C30.74 0.050089 29.45 -0.299911 28.44 0.280089L20.31 5.00009C19.36 5.53009 19.03 6.75009 19.58 7.71009L21.08 10.3101C21.63 11.2601 22.86 11.5901 23.81 11.0401L25.69 9.96009C25.94 10.5501 26.41 11.0301 27 11.2901V14.0001C27 15.1001 27.9 16.0001 29 16.0001H34V14.0001H29Z" fill="white"/>
<path d="M1.9 24C1.9 22.29 3.29 20.9 5 20.9H9V19H5C3.67392 19 2.40215 19.5268 1.46447 20.4645C0.526784 21.4021 0 22.6739 0 24C0 25.3261 0.526784 26.5979 1.46447 27.5355C2.40215 28.4732 3.67392 29 5 29H9V27.1H5C3.29 27.1 1.9 25.71 1.9 24ZM6 25H14V23H6V25ZM15 19H11V20.9H15C16.71 20.9 18.1 22.29 18.1 24C18.1 25.71 16.71 27.1 15 27.1H11V29H15C16.3261 29 17.5979 28.4732 18.5355 27.5355C19.4732 26.5979 20 25.3261 20 24C20 22.6739 19.4732 21.4021 18.5355 20.4645C17.5979 19.5268 16.3261 19 15 19Z" fill="white"/>
</svg>
